<svg width="34" height="34" viewBox="0 0 34 34" fill="none" xmlns="http://www.w3.org/2000/svg">
<path d="M18.3033 3.20169L27.5258 8.17419C28.6025 8.75502 28.6025 10.4125 27.5258 10.9934L18.3033 15.9659C17.4816 16.405 16.5183 16.405 15.6966 15.9659L6.47413 10.9934C5.39746 10.4125 5.39746 8.75502 6.47413 8.17419L15.6966 3.20169C16.5183 2.76252 17.4816 2.76252 18.3033 3.20169Z" stroke="#0D903A" stroke-width="2" stroke-linecap="round" stroke-linejoin="round"/>
<path d="M5.11421 14.3508L13.685 18.6433C14.7475 19.1816 15.4275 20.2725 15.4275 21.4625V29.5658C15.4275 30.7416 14.195 31.4925 13.1467 30.9683L4.57587 26.6758C3.51337 26.1375 2.83337 25.0466 2.83337 23.8566V15.7533C2.83337 14.5775 4.06587 13.8266 5.11421 14.3508Z" stroke="#0D903A" stroke-width="2" stroke-linecap="round" stroke-linejoin="round"/>
<path d="M28.8858 14.3508L20.315 18.6433C19.2525 19.1816 18.5725 20.2725 18.5725 21.4625V29.5658C18.5725 30.7416 19.805 31.4925 20.8533 30.9683L29.4242 26.6758C30.4867 26.1375 31.1667 25.0466 31.1667 23.8566V15.7533C31.1667 14.5775 29.9342 13.8266 28.8858 14.3508Z" stroke="#0D903A" stroke-width="2" stroke-linecap="round" stroke-linejoin="round"/>
</svg>
