<svg width="41" height="40" viewBox="0 0 41 40" fill="none" xmlns="http://www.w3.org/2000/svg">
<rect x="0.5" width="40" height="40" rx="20" fill="#0D903A"/>
<path d="M28.8084 25.275C28.8084 25.575 28.7417 25.8834 28.6001 26.1834C28.4584 26.4834 28.2751 26.7667 28.0334 27.0334C27.6251 27.4834 27.1751 27.8084 26.6667 28.0167C26.1667 28.225 25.6251 28.3334 25.0417 28.3334C24.1917 28.3334 23.2834 28.1334 22.3251 27.725C21.3667 27.3167 20.4084 26.7667 19.4584 26.075C18.5001 25.375 17.5917 24.6 16.7251 23.7417C15.8667 22.875 15.0917 21.9667 14.4001 21.0167C13.7167 20.0667 13.1667 19.1167 12.7667 18.175C12.3667 17.225 12.1667 16.3167 12.1667 15.45C12.1667 14.8834 12.2667 14.3417 12.4667 13.8417C12.6667 13.3334 12.9834 12.8667 13.4251 12.45C13.9584 11.925 14.5417 11.6667 15.1584 11.6667C15.3917 11.6667 15.6251 11.7167 15.8334 11.8167C16.0501 11.9167 16.2417 12.0667 16.3917 12.2834L18.3251 15.0084C18.4751 15.2167 18.5834 15.4084 18.6584 15.5917C18.7334 15.7667 18.7751 15.9417 18.7751 16.1C18.7751 16.3 18.7167 16.5 18.6001 16.6917C18.4917 16.8834 18.3334 17.0834 18.1334 17.2834L17.5001 17.9417C17.4084 18.0334 17.3667 18.1417 17.3667 18.275C17.3667 18.3417 17.3751 18.4 17.3917 18.4667C17.4167 18.5334 17.4417 18.5834 17.4584 18.6334C17.6084 18.9084 17.8667 19.2667 18.2334 19.7C18.6084 20.1334 19.0084 20.575 19.4417 21.0167C19.8917 21.4584 20.3251 21.8667 20.7667 22.2417C21.2001 22.6084 21.5584 22.8584 21.8417 23.0084C21.8834 23.025 21.9334 23.05 21.9917 23.075C22.0584 23.1 22.1251 23.1084 22.2001 23.1084C22.3417 23.1084 22.4501 23.0584 22.5417 22.9667L23.1751 22.3417C23.3834 22.1334 23.5834 21.975 23.7751 21.875C23.9667 21.7584 24.1584 21.7 24.3667 21.7C24.5251 21.7 24.6917 21.7334 24.8751 21.8084C25.0584 21.8834 25.2501 21.9917 25.4584 22.1334L28.2167 24.0917C28.4334 24.2417 28.5834 24.4167 28.6751 24.625C28.7584 24.8334 28.8084 25.0417 28.8084 25.275Z" stroke="white" stroke-width="2" stroke-miterlimit="10"/>
</svg>
