<svg width="41" height="40" viewBox="0 0 41 40" fill="none" xmlns="http://www.w3.org/2000/svg">
<rect x="0.5" width="40" height="40" rx="20" fill="#0D903A"/>
<path d="M17.5834 25.8334H17.1667C13.8334 25.8334 12.1667 25 12.1667 20.8334V16.6667C12.1667 13.3334 13.8334 11.6667 17.1667 11.6667H23.8334C27.1667 11.6667 28.8334 13.3334 28.8334 16.6667V20.8334C28.8334 24.1667 27.1667 25.8334 23.8334 25.8334H23.4167C23.1584 25.8334 22.9084 25.9584 22.7501 26.1667L21.5001 27.8334C20.9501 28.5667 20.0501 28.5667 19.5001 27.8334L18.2501 26.1667C18.1167 25.9834 17.8084 25.8334 17.5834 25.8334Z" stroke="white" stroke-width="2" stroke-miterlimit="10" stroke-linecap="round" stroke-linejoin="round"/>
<path d="M23.8303 19.1667H23.8378" stroke="white" stroke-width="2" stroke-linecap="round" stroke-linejoin="round"/>
<path d="M20.4963 19.1667H20.5038" stroke="white" stroke-width="2" stroke-linecap="round" stroke-linejoin="round"/>
<path d="M17.1621 19.1667H17.1696" stroke="white" stroke-width="2" stroke-linecap="round" stroke-linejoin="round"/>
</svg>
