<svg width="20" height="20" viewBox="0 0 20 20" fill="none" xmlns="http://www.w3.org/2000/svg">
<path d="M13.9167 15.8167H6.08332C5.73332 15.8167 5.34165 15.5417 5.22498 15.2083L1.77498 5.55834C1.28332 4.17501 1.85832 3.75001 3.04165 4.60001L6.29165 6.92501C6.83332 7.30001 7.44998 7.10834 7.68332 6.50001L9.14998 2.59167C9.61665 1.34167 10.3916 1.34167 10.8583 2.59167L12.325 6.50001C12.5583 7.10834 13.175 7.30001 13.7083 6.92501L16.7583 4.75001C18.0583 3.81667 18.6833 4.29168 18.15 5.80001L14.7833 15.225C14.6583 15.5417 14.2667 15.8167 13.9167 15.8167Z" stroke="white" stroke-width="2" stroke-linecap="round" stroke-linejoin="round"/>
<path d="M5.41669 18.3333H14.5834" stroke="white" stroke-width="2" stroke-linecap="round" stroke-linejoin="round"/>
<path d="M7.91669 11.6667H12.0834" stroke="white" stroke-width="2" stroke-linecap="round" stroke-linejoin="round"/>
</svg>
