<svg width="34" height="34" viewBox="0 0 34 34" fill="none" xmlns="http://www.w3.org/2000/svg">
<path d="M17.2125 23.375V26.35" stroke="#0D903A" stroke-width="2" stroke-linecap="round" stroke-linejoin="round"/>
<path d="M10.1292 31.1666H24.2958V29.75C24.2958 28.1916 23.0208 26.9166 21.4625 26.9166H12.9625C11.4041 26.9166 10.1292 28.1916 10.1292 29.75V31.1666V31.1666Z" stroke="#0D903A" stroke-width="2" stroke-miterlimit="10"/>
<path d="M8.71252 31.1666H25.7125" stroke="#0D903A" stroke-width="2" stroke-linecap="round" stroke-linejoin="round"/>
<path d="M17 22.6667C11.5175 22.6667 7.08337 18.2325 7.08337 12.75V8.50004C7.08337 5.36921 9.61921 2.83337 12.75 2.83337H21.25C24.3809 2.83337 26.9167 5.36921 26.9167 8.50004V12.75C26.9167 18.2325 22.4825 22.6667 17 22.6667Z" stroke="#0D903A" stroke-width="2" stroke-linecap="round" stroke-linejoin="round"/>
<path d="M7.74918 16.5041C6.68668 16.1641 5.75168 15.5408 5.01501 14.8041C3.74001 13.3875 2.89001 11.6875 2.89001 9.70414C2.89001 7.72081 4.44835 6.16248 6.43168 6.16248H7.35252C7.06918 6.81414 6.92751 7.53664 6.92751 8.28748V12.5375C6.92751 13.9541 7.22501 15.2858 7.74918 16.5041Z" stroke="#0D903A" stroke-width="2" stroke-linecap="round" stroke-linejoin="round"/>
<path d="M26.2509 16.5041C27.3134 16.1641 28.2484 15.5408 28.985 14.8041C30.26 13.3875 31.11 11.6875 31.11 9.70414C31.11 7.72081 29.5517 6.16248 27.5684 6.16248H26.6475C26.9309 6.81414 27.0725 7.53664 27.0725 8.28748V12.5375C27.0725 13.9541 26.775 15.2858 26.2509 16.5041Z" stroke="#0D903A" stroke-width="2" stroke-linecap="round" stroke-linejoin="round"/>
</svg>
