<svg width="35" height="34" viewBox="0 0 35 34" fill="none" xmlns="http://www.w3.org/2000/svg">
<path d="M17.5001 19.8334H18.9167C20.4751 19.8334 21.7501 18.5584 21.7501 17V2.83337H9.00006C6.87506 2.83337 5.01924 4.00919 4.05591 5.73752" stroke="#0D903A" stroke-width="2" stroke-linecap="round" stroke-linejoin="round"/>
<path d="M3.33337 24.0834C3.33337 26.435 5.23171 28.3334 7.58337 28.3334H9.00004C9.00004 26.775 10.275 25.5 11.8334 25.5C13.3917 25.5 14.6667 26.775 14.6667 28.3334H20.3334C20.3334 26.775 21.6084 25.5 23.1667 25.5C24.725 25.5 26 26.775 26 28.3334H27.4167C29.7684 28.3334 31.6667 26.435 31.6667 24.0834V19.8334H27.4167C26.6375 19.8334 26 19.1959 26 18.4167V14.1667C26 13.3875 26.6375 12.75 27.4167 12.75H29.2442L26.8217 8.51422C26.3117 7.63589 25.3767 7.08337 24.3567 7.08337H21.75V17C21.75 18.5584 20.475 19.8334 18.9167 19.8334H17.5" stroke="#0D903A" stroke-width="2" stroke-linecap="round" stroke-linejoin="round"/>
<path d="M11.8333 31.1667C13.3981 31.1667 14.6667 29.8981 14.6667 28.3333C14.6667 26.7685 13.3981 25.5 11.8333 25.5C10.2685 25.5 9 26.7685 9 28.3333C9 29.8981 10.2685 31.1667 11.8333 31.1667Z" stroke="#0D903A" stroke-width="2" stroke-linecap="round" stroke-linejoin="round"/>
<path d="M23.1667 31.1667C24.7315 31.1667 26 29.8981 26 28.3333C26 26.7685 24.7315 25.5 23.1667 25.5C21.6019 25.5 20.3334 26.7685 20.3334 28.3333C20.3334 29.8981 21.6019 31.1667 23.1667 31.1667Z" stroke="#0D903A" stroke-width="2" stroke-linecap="round" stroke-linejoin="round"/>
<path d="M31.6667 17V19.8333H27.4167C26.6375 19.8333 26 19.1958 26 18.4167V14.1667C26 13.3875 26.6375 12.75 27.4167 12.75H29.2441L31.6667 17Z" stroke="#0D903A" stroke-width="2" stroke-linecap="round" stroke-linejoin="round"/>
<path d="M3.33337 11.3334H11.8334" stroke="#0D903A" stroke-width="2" stroke-linecap="round" stroke-linejoin="round"/>
<path d="M3.33337 15.5834H9.00004" stroke="#0D903A" stroke-width="2" stroke-linecap="round" stroke-linejoin="round"/>
<path d="M3.33337 19.8334H6.16671" stroke="#0D903A" stroke-width="2" stroke-linecap="round" stroke-linejoin="round"/>
</svg>
