<svg width="34" height="35" viewBox="0 0 34 35" fill="none" xmlns="http://www.w3.org/2000/svg">
<path d="M31.1665 8.99999V12.4283C31.1665 14.6667 29.7498 16.0833 27.5115 16.0833H22.6665V6.18083C22.6665 4.60833 23.9557 3.33333 25.5282 3.33333C27.0724 3.34749 28.489 3.97083 29.509 4.99083C30.529 6.02499 31.1665 7.44166 31.1665 8.99999Z" stroke="#0D903A" stroke-width="2" stroke-miterlimit="10" stroke-linecap="round" stroke-linejoin="round"/>
<path d="M2.8335 10.4167V30.25C2.8335 31.4258 4.16513 32.0917 5.10013 31.3833L7.52266 29.57C8.08933 29.145 8.88267 29.2017 9.39267 29.7117L11.7443 32.0775C12.2968 32.63 13.2035 32.63 13.756 32.0775L16.136 29.6975C16.6318 29.2017 17.4252 29.145 17.9777 29.57L20.4002 31.3833C21.3352 32.0775 22.6668 31.4117 22.6668 30.25V6.16666C22.6668 4.60833 23.9418 3.33333 25.5002 3.33333H9.91683H8.50016C4.25016 3.33333 2.8335 5.86916 2.8335 8.99999V10.4167Z" stroke="#0D903A" stroke-width="2" stroke-miterlimit="10" stroke-linecap="round" stroke-linejoin="round"/>
<path d="M8.5 13.25H17" stroke="#0D903A" stroke-width="2" stroke-linecap="round" stroke-linejoin="round"/>
<path d="M9.5625 18.9167H15.9375" stroke="#0D903A" stroke-width="2" stroke-linecap="round" stroke-linejoin="round"/>
</svg>
