<svg width="34" height="34" viewBox="0 0 34 34" fill="none" xmlns="http://www.w3.org/2000/svg">
<path d="M14.8608 3.15921L7.79164 5.80837C6.16247 6.41754 4.83081 8.34419 4.83081 10.0867V20.6125C4.83081 22.2842 5.93583 24.48 7.28166 25.4858L13.3733 30.0334C15.3708 31.535 18.6575 31.535 20.655 30.0334L26.7466 25.4858C28.0925 24.48 29.1975 22.2842 29.1975 20.6125V10.0867C29.1975 8.34419 27.8658 6.41754 26.2366 5.80837L19.1675 3.15921C17.9633 2.72004 16.0366 2.72004 14.8608 3.15921Z" stroke="#0D903A" stroke-width="2" stroke-linecap="round" stroke-linejoin="round"/>
<path d="M17.0001 15.47C16.9434 15.47 16.8726 15.47 16.8159 15.47C15.4843 15.4275 14.4218 14.3225 14.4218 12.9766C14.4218 11.6025 15.5409 10.4833 16.9151 10.4833C18.2893 10.4833 19.4084 11.6025 19.4084 12.9766C19.3943 14.3366 18.3318 15.4275 17.0001 15.47Z" stroke="#0D903A" stroke-width="2" stroke-linecap="round" stroke-linejoin="round"/>
<path d="M14.1809 19.4366C12.8209 20.3433 12.8209 21.8308 14.1809 22.7375C15.7251 23.7716 18.2609 23.7716 19.8051 22.7375C21.1651 21.8308 21.1651 20.3433 19.8051 19.4366C18.2751 18.4025 15.7392 18.4025 14.1809 19.4366Z" stroke="#0D903A" stroke-width="2" stroke-linecap="round" stroke-linejoin="round"/>
</svg>
