<svg width="30" height="30" viewBox="0 0 30 30" fill="none" xmlns="http://www.w3.org/2000/svg">
<path d="M22.5 8.75V21.25C22.5 22.025 22.475 22.7125 22.3875 23.325C22.025 26.6125 20.475 27.5 16.25 27.5H13.75C9.525 27.5 7.975 26.6125 7.6125 23.325C7.525 22.7125 7.5 22.025 7.5 21.25V8.75C7.5 7.975 7.525 7.2875 7.6125 6.675C7.975 3.3875 9.525 2.5 13.75 2.5H16.25C20.475 2.5 22.025 3.3875 22.3875 6.675C22.475 7.2875 22.5 7.975 22.5 8.75Z" stroke="white" stroke-width="2" stroke-linecap="round" stroke-linejoin="round"/>
<path d="M7.5 21.25C7.5 22.025 7.525 22.7125 7.6125 23.325C7.4375 23.3375 7.275 23.3375 7.0875 23.3375H6.6625C3.3375 23.3375 2.5 22.5 2.5 19.1625V10.8375C2.5 7.5 3.3375 6.6625 6.6625 6.6625H7.0875C7.275 6.6625 7.4375 6.6625 7.6125 6.675C7.525 7.2875 7.5 7.975 7.5 8.75V21.25Z" stroke="white" stroke-width="2" stroke-linecap="round" stroke-linejoin="round"/>
<path d="M27.5 10.8375V19.1625C27.5 22.5 26.6625 23.3375 23.3375 23.3375H22.9125C22.725 23.3375 22.5625 23.3375 22.3875 23.325C22.475 22.7125 22.5 22.025 22.5 21.25V8.75C22.5 7.975 22.475 7.2875 22.3875 6.675C22.5625 6.6625 22.725 6.6625 22.9125 6.6625H23.3375C26.6625 6.6625 27.5 7.5 27.5 10.8375Z" stroke="white" stroke-width="2" stroke-linecap="round" stroke-linejoin="round"/>
</svg>
