<svg width="30" height="30" viewBox="0 0 30 30" fill="none" xmlns="http://www.w3.org/2000/svg">
<path d="M26.9501 13.425L25.2501 11.45C24.9251 11.075 24.6626 10.375 24.6626 9.875V7.75C24.6626 6.425 23.5751 5.3375 22.2501 5.3375H20.1251C19.6376 5.3375 18.9251 5.075 18.5501 4.75L16.5751 3.05C15.7126 2.3125 14.3001 2.3125 13.4251 3.05L11.4626 4.7625C11.0876 5.075 10.3751 5.3375 9.8876 5.3375H7.7251C6.4001 5.3375 5.3126 6.425 5.3126 7.75V9.8875C5.3126 10.375 5.0501 11.075 4.7376 11.45L3.0501 13.4375C2.3251 14.3 2.3251 15.7 3.0501 16.5625L4.7376 18.55C5.0501 18.925 5.3126 19.625 5.3126 20.1125V22.25C5.3126 23.575 6.4001 24.6625 7.7251 24.6625H9.8876C10.3751 24.6625 11.0876 24.925 11.4626 25.25L13.4376 26.95C14.3001 27.6875 15.7126 27.6875 16.5876 26.95L18.5626 25.25C18.9376 24.925 19.6376 24.6625 20.1376 24.6625H22.2626C23.5876 24.6625 24.6751 23.575 24.6751 22.25V20.125C24.6751 19.6375 24.9376 18.925 25.2626 18.55L26.9626 16.575C27.6876 15.7125 27.6876 14.2875 26.9501 13.425ZM20.2001 12.6375L14.1626 18.675C13.9876 18.85 13.7501 18.95 13.5001 18.95C13.2501 18.95 13.0126 18.85 12.8376 18.675L9.8126 15.65C9.4501 15.2875 9.4501 14.6875 9.8126 14.325C10.1751 13.9625 10.7751 13.9625 11.1376 14.325L13.5001 16.6875L18.8751 11.3125C19.2376 10.95 19.8376 10.95 20.2001 11.3125C20.5626 11.675 20.5626 12.275 20.2001 12.6375Z" fill="#0D903A"/>
</svg>
