<svg width="30" height="30" viewBox="0 0 30 30" fill="none" xmlns="http://www.w3.org/2000/svg">
<path d="M26.3499 10.725V19.275C26.3499 20.675 25.6 21.9751 24.3875 22.6876L16.9625 26.975C15.75 27.675 14.25 27.675 13.025 26.975L5.59996 22.6876C4.38746 21.9876 3.63745 20.6875 3.63745 19.275V10.725C3.63745 9.32504 4.38746 8.02499 5.59996 7.31249L13.025 3.025C14.2375 2.325 15.7375 2.325 16.9625 3.025L24.3875 7.31249C25.6 8.02499 26.3499 9.31254 26.3499 10.725Z" stroke="#000929" stroke-width="2" stroke-linecap="round" stroke-linejoin="round"/>
<path d="M12.1875 15V13.5C12.1875 11.575 13.55 10.7876 15.2125 11.7501L16.5125 12.5L17.8125 13.25C19.475 14.2125 19.475 15.7876 17.8125 16.7501L16.5125 17.5L15.2125 18.25C13.55 19.2125 12.1875 18.425 12.1875 16.5V15Z" stroke="#000929" stroke-width="2" stroke-miterlimit="10" stroke-linecap="round" stroke-linejoin="round"/>
</svg>
