<svg width="71" height="50" viewBox="0 0 71 50" fill="none" xmlns="http://www.w3.org/2000/svg">
<g clip-path="url(#clip0_28_4881)">
<path d="M38.9568 24.4494C43.3784 22.4439 44.0323 15.8994 37.7429 15.8994H30.4594L27.7678 21.1772H29.0345L25.8149 33.7912H34.2595C40.4202 33.8439 43.1909 26.5895 38.9568 24.4494ZM34.2595 29.1996H32.1483L32.94 26.3496H34.9455C37.3205 26.8245 35.8429 29.305 34.2595 29.1996ZM35.5262 23.1299H33.7318L34.2595 20.6494H36.265C38.2028 21.1244 36.5291 23.2356 35.5262 23.1299Z" fill="#005FAF" stroke="#005FAF" stroke-width="0.151336"/>
<path d="M56.247 22.6399L59.012 17.7587L55.2706 15.8071L54.7825 16.4094C52.7641 15.341 42.195 16.8162 41.5332 27.2422C41.9288 35.9883 51.7291 34.415 52.6904 33.8601L55.3859 28.2881C52.746 30.0269 47.3406 30.8617 47.1119 25.6383C47.586 21.331 52.6715 19.7225 56.247 22.6399ZM70.0449 15.8994H61.5445L58.8425 21.0193H60.2306L53.8245 33.7912H60.0252L61.2983 30.7106H65.1045L65.1994 33.7912H70.9073L70.0449 15.8994ZM63.0227 26.563L65.1043 21.5942L65.1992 26.563H63.0227Z" fill="#005FAF" stroke="#005FAF" stroke-width="0.151336"/>
<path d="M16.9611 32.9371L17.2913 32.8413L16.9292 32.3408L16.9611 32.9371ZM11.54 32.8519L11.4761 33.2992C11.6404 33.2832 11.8428 33.4248 11.9234 33.1075C11.9174 32.8602 11.7291 32.8466 11.54 32.8519ZM14.1708 32.8413C14.1434 32.7195 14.0417 32.6297 13.7873 32.7136L13.8725 33.1714C14.0815 33.125 14.1889 33.0014 14.1708 32.8413ZM8.22767 32.4666L8.12598 32.8734C8.28942 32.8802 8.48086 33.0128 8.58937 32.7717C8.59663 32.6206 8.60284 32.4702 8.22767 32.4666ZM13.9471 33.5123L14.0217 33.981C14.1962 33.9854 14.3554 33.8805 14.3093 33.6615C14.2648 33.4509 14.0878 33.4842 13.9471 33.5123Z" fill="#005FAF"/>
<path d="M20.8736 16.1406C15.2337 13.2675 8.49825 13.3474 3.12462 16.0153C0.35366 20.8933 0.265431 27.7184 3.12462 33.7634C9.04472 36.7592 15.5924 36.5619 20.9152 33.8887C23.4168 28.7564 23.8299 22.5807 20.8736 16.1406ZM11.3485 30.7064L11.0142 30.7102C10.9314 29.7864 10.7106 29.0101 10.2369 28.4159C8.06482 25.692 3.62463 27.7428 4.76555 23.1136C5.35879 20.747 12.1255 19.3512 11.3485 30.7064ZM4.77357 26.1342C5.24786 27.0996 8.21933 27.2578 9.25084 27.9967C10.8871 29.1688 10.6522 30.7106 10.6522 30.7106H10.2663C9.50659 28.382 7.37443 30.2258 5.6666 29.5986C4.59439 29.2173 3.81592 27.5642 4.77357 26.1342ZM10.1875 33.7254L10.3473 32.458L10.6348 32.4793L10.5069 33.8745C10.378 34.489 9.46165 34.4069 9.34603 33.8212L9.49509 32.3728L9.8359 32.4262L9.68684 33.6402C9.70575 34.042 10.1088 34.0179 10.1875 33.7254ZM8.6573 34.0715L8.32951 33.9924C8.36795 33.7215 8.68923 33.1703 8.05423 33.1703L7.87747 33.8907L7.51577 33.8229L7.90002 32.0935C8.8392 32.1958 8.92138 32.4572 8.93999 32.7378C8.90292 32.9554 8.84496 33.1073 8.65745 33.1446C8.87689 33.3437 8.66002 33.7611 8.6573 34.0715ZM6.57537 32.1346C6.48503 32.2544 6.30418 32.6732 6.278 33.0069C6.25015 33.3605 6.5899 33.2861 6.6745 33.2448C6.74275 33.2116 6.79345 32.9276 6.79345 32.9276L6.55555 32.8483L6.63485 32.6105L7.17027 32.7889L6.91255 33.6812L6.69447 33.6216L6.7143 33.4828C6.44734 33.6045 5.95868 33.5132 5.90132 33.2053C5.84397 32.9578 6.0177 32.2077 6.29782 31.8572C6.57008 31.5163 7.23338 31.8494 7.24957 32.0554C7.26562 32.2606 7.18465 32.4916 7.18465 32.4916L6.93495 32.4445C6.93495 32.4445 6.95023 32.3703 6.97202 32.2535C6.99503 32.1297 6.67223 32.0058 6.57537 32.1346ZM11.4443 33.5868L11.3804 34.3537L11.1142 34.3431L11.21 32.5218C11.8748 32.5356 12.2559 32.6276 12.2432 33.0971C12.2035 33.7384 11.6842 33.5942 11.4443 33.5868ZM12.107 30.7105H11.6616C11.6221 29.1333 11.9254 26.2484 11.0967 24.1253C10.4688 22.5158 8.87976 21.7918 8.5276 20.4917C7.97008 18.4338 8.91896 16.2072 12.107 16.0358C14.8708 16.3195 15.72 18.4532 15.2486 20.4398C14.438 22.4261 13.6273 22.1406 12.6181 24.1192C11.7937 26.2402 12.1076 29.0189 12.107 30.7105ZM17.0464 33.6294L16.7376 33.736L16.6416 31.9041L17.0038 31.8083L17.8985 33.3206L17.6535 33.4804L17.3552 33.0545L17.0144 33.1823L17.0464 33.6294ZM13.443 30.7105H13.0867C13.3803 26.6598 18.4705 27.5399 18.9357 26.1342C19.7402 27.5277 19.451 28.7027 18.611 29.305C16.5234 30.8023 14.5217 28.197 13.443 30.7105ZM15.3318 32.7562L15.4916 33.5977C15.591 33.7915 15.6585 33.7557 15.8111 33.7361C15.988 33.6081 15.9511 33.4834 15.9176 33.3207L16.2265 33.2782C16.307 33.8878 16.0172 33.95 15.8005 33.9917C15.3357 34.025 15.2446 33.9345 15.1189 33.3315C15.0456 32.8153 14.9191 32.2702 15.3531 32.1706C16.0656 32.0618 16.0236 32.3824 16.088 32.6072L15.7792 32.6606C15.7298 32.4675 15.6588 32.3909 15.5022 32.4051C15.3595 32.4707 15.3009 32.5768 15.3318 32.7562ZM14.6821 33.6294C14.697 33.8947 14.6069 34.0709 14.4371 34.1301L13.7128 34.2791L13.4253 32.5218C13.5739 32.4976 14.3026 32.2307 14.4796 32.7137C14.567 33.0087 14.4765 33.1145 14.3731 33.2461C14.5691 33.3091 14.6352 33.4616 14.6821 33.6294ZM12.8222 24.8107C14.4358 20.2676 18.1279 21.0704 18.9468 23.1137C20.0686 27.2139 16.4562 26.0895 14.1423 27.7708C13.2677 28.5314 12.8075 29.404 12.8007 30.7268H12.4042C12.3805 28.0624 12.3373 26.1757 12.8222 24.8107Z" fill="#005FAF"/>
</g>
<defs>
<clipPath id="clip0_28_4881">
<rect width="70" height="21.952" fill="white" transform="translate(1 14)"/>
</clipPath>
</defs>
</svg>
