<svg width="177" height="36" viewBox="0 0 177 36" fill="none" xmlns="http://www.w3.org/2000/svg">
<g clip-path="url(#clip0_8_655)">
<path d="M10.9594 15.189L17.7997 8.35152L24.6428 15.1946L28.6206 11.2139L17.7997 0.390198L6.97876 11.2111L10.9594 15.189Z" fill="white"/>
<path d="M0.187012 18.0005L4.16622 14.0213L8.14542 18.0005L4.16622 21.9797L0.187012 18.0005Z" fill="white"/>
<path d="M10.9594 20.8109L17.7996 27.6511L24.6427 20.8081L28.6234 24.7832L28.6206 24.786L17.7996 35.6097L6.97871 24.7915L6.97314 24.786L10.9594 20.8109Z" fill="white"/>
<path d="M27.447 18.0015L31.4262 14.0223L35.4054 18.0015L31.4262 21.9807L27.447 18.0015Z" fill="white"/>
<path d="M21.836 17.9985L17.7997 13.9595L14.8149 16.9443L14.4699 17.2864L13.7634 17.993L13.7578 17.9985L13.7634 18.0069L17.7997 22.0404L21.836 18.0013L21.8387 17.9985H21.836Z" fill="white"/>
<path d="M41.6141 8.92453H50.2709C52.4184 8.92453 54.0429 9.48088 55.1445 10.5936C55.5595 11.0046 55.8867 11.4956 56.1062 12.0369C56.3256 12.5782 56.4329 13.1585 56.4213 13.7425V13.7953C56.4288 14.2738 56.3621 14.7504 56.2238 15.2085C56.1006 15.6028 55.9216 15.9774 55.6925 16.3212C55.4788 16.6453 55.2204 16.9375 54.9247 17.1891C54.6359 17.4377 54.3195 17.6523 53.9817 17.8289C54.9557 18.1681 55.8316 18.7412 56.5326 19.4979C57.152 20.2026 57.4617 21.1762 57.4617 22.4187V22.4716C57.4793 23.2476 57.3104 24.0164 56.9693 24.7136C56.6388 25.356 56.1542 25.9065 55.559 26.3159C54.886 26.7671 54.1367 27.0923 53.3475 27.2756C52.4099 27.498 51.4487 27.6054 50.4851 27.5955H41.6141V8.92453ZM49.403 16.4742C50.1519 16.5103 50.8973 16.3492 51.5644 16.0068C51.8245 15.8549 52.037 15.6331 52.1776 15.3666C52.3182 15.1002 52.3814 14.7996 52.36 14.4991V14.4463C52.3737 14.1694 52.3175 13.8935 52.1964 13.644C52.0754 13.3946 51.8934 13.1797 51.6673 13.0192C51.2055 12.691 50.5389 12.5269 49.6673 12.5269H45.617V16.4742H49.403ZM50.4962 23.9987C51.2424 24.0405 51.9851 23.8698 52.6381 23.5064C52.8925 23.3429 53.0985 23.1143 53.2345 22.8442C53.3705 22.5741 53.4316 22.2726 53.4115 21.9709V21.918C53.4215 21.6312 53.361 21.3464 53.2354 21.0884C53.1098 20.8304 52.9229 20.6071 52.691 20.4381C52.2125 20.0672 51.4392 19.8818 50.371 19.8818H45.617V23.9987H50.4962Z" fill="white"/>
<path d="M62.6189 8.92453H66.7275V27.6011H62.6189V8.92453Z" fill="white"/>
<path d="M72.9447 8.92453H76.7334L85.4903 20.4186V8.92453H89.5461V27.6011H86.0494L77.006 15.7286V27.6011H72.9447V8.92453Z" fill="white"/>
<path d="M101.986 8.79102H105.769L113.772 27.6011H109.483L107.775 23.4118H99.8775L98.1695 27.6011H93.9802L101.986 8.79102ZM106.309 19.7844L103.822 13.7258L101.346 19.7844H106.309Z" fill="white"/>
<path d="M118.215 8.92453H122.003L130.755 20.4186V8.92453H134.81V27.6011H131.314L122.27 15.7286V27.6011H118.215V8.92453Z" fill="white"/>
<path d="M149.598 27.9293C148.289 27.9405 146.991 27.6869 145.782 27.1838C144.644 26.7139 143.611 26.0209 142.745 25.1456C141.879 24.2704 141.196 23.2307 140.738 22.0877C140.255 20.8921 140.01 19.6135 140.018 18.324V18.2711C139.996 15.7293 140.974 13.2807 142.741 11.4531C143.611 10.5604 144.651 9.85264 145.801 9.37239C147.052 8.85432 148.395 8.59595 149.748 8.61297C150.549 8.607 151.348 8.67873 152.135 8.82717C152.808 8.95447 153.466 9.15117 154.099 9.41411C154.673 9.65574 155.219 9.95986 155.726 10.321C156.222 10.6731 156.687 11.0658 157.117 11.4948L154.505 14.5102C153.838 13.8945 153.089 13.3731 152.28 12.9608C151.485 12.5807 150.613 12.3903 149.732 12.4045C148.999 12.3967 148.272 12.5449 147.601 12.8394C146.929 13.1339 146.328 13.5678 145.837 14.1125C145.351 14.6557 144.97 15.2849 144.713 15.9679C144.445 16.6896 144.311 17.454 144.316 18.2239V18.2767C144.313 19.0455 144.448 19.8085 144.713 20.5299C144.966 21.2153 145.343 21.8481 145.826 22.3965C146.313 22.9478 146.913 23.3882 147.585 23.6877C148.257 23.9871 148.985 24.1388 149.721 24.1323C150.657 24.1618 151.587 23.9602 152.427 23.5453C153.227 23.1093 153.967 22.5706 154.628 21.943L157.242 24.5857C156.781 25.0868 156.281 25.5518 155.749 25.9765C155.225 26.3904 154.657 26.744 154.055 27.0308C153.413 27.333 152.736 27.5562 152.041 27.6957C151.237 27.8568 150.418 27.9351 149.598 27.9293Z" fill="white"/>
<path d="M162.091 8.92453H176.147V12.5797H166.133V16.3684H174.951V20.0236H166.147V23.9459H176.286V27.6011H162.099L162.091 8.92453Z" fill="white"/>
</g>
<defs>
<clipPath id="clip0_8_655">
<rect width="176.095" height="35.2195" fill="white" transform="translate(0.188599 0.390259)"/>
</clipPath>
</defs>
</svg>
