<svg width="145" height="28" viewBox="0 0 145 28" fill="none" xmlns="http://www.w3.org/2000/svg">
<g clip-path="url(#clip0_8_670)">
<path d="M9.40781 27.5088H3.98051V13.9792H0.283325V9.57424H3.98036V6.43979C3.98036 2.72547 5.61557 0.0615845 11.0282 0.0615845C12.173 0.0615845 13.9702 0.292325 13.9702 0.292325V4.38257H12.0825C10.1591 4.38257 9.4081 4.96763 9.4081 6.58512V9.57424H13.8982L13.4983 13.9792H9.40796L9.40781 27.5088ZM21.8609 9.22222C21.7818 9.22222 21.7004 9.2251 21.6199 9.22712C16.5874 9.22712 14.2849 13.0126 14.2849 18.3862C14.2849 25.1554 17.2716 27.8647 21.6593 27.8647C24.1696 27.8647 25.8189 26.8081 26.8214 24.8363V27.5107H31.9835V9.57611H26.8214V12.3342C26.0029 10.5597 24.3074 9.24325 21.8609 9.22222ZM23.1735 13.4601C25.2872 13.4601 26.5558 14.9344 26.5558 17.4422L26.5607 20.0035C26.5607 21.6937 25.5129 23.6712 23.1735 23.6712C19.577 23.6712 19.673 19.7878 19.673 18.4943C19.673 14.1435 21.5893 13.4601 23.1735 13.4601ZM34.0683 18.5443C34.0683 16.365 33.964 9.23389 43.2547 9.23389C46.9841 9.23389 48.5414 10.4197 48.5414 10.4197L47.2898 14.3018C47.2898 14.3018 45.7345 13.4454 43.708 13.4454C41.1123 13.4454 39.4561 14.9501 39.4561 17.5976L39.459 19.4959C39.459 22.0399 41.057 23.738 43.7133 23.738C45.5595 23.738 47.2611 22.8735 47.2611 22.8735L48.5096 26.6745C48.5096 26.6745 47.0857 27.8679 43.2808 27.8679C34.4345 27.8679 34.0684 21.4699 34.0684 18.5443H34.0683ZM78.8089 9.22712C83.8416 9.22712 86.1804 13.0126 86.1804 18.3862C86.1804 25.1554 83.1936 27.8647 78.8059 27.8647C76.2956 27.8647 74.4398 26.8082 73.4374 24.8363V27.5107L68.3402 27.5086V0.606893L73.7521 0.134897V12.0912C74.5332 9.99942 77.1 9.22712 78.8089 9.22712ZM77.2917 13.4601C75.178 13.4601 73.7521 14.9344 73.7521 17.4422L73.747 20.0035C73.7439 21.6937 74.7345 23.6712 77.2917 23.6712C80.8882 23.6712 80.7921 19.7878 80.7921 18.4943C80.7921 14.1435 78.876 13.4601 77.2917 13.4601ZM57.9315 9.24195C52.2235 9.24195 49.21 12.3541 49.21 17.8846V18.9122C49.21 26.0904 53.4418 27.9384 58.487 27.9384C63.3909 27.9384 65.6106 26.5668 65.6106 26.5668L64.5979 22.9141C64.5979 22.9141 61.9869 24.0251 59.1359 24.0251C56.1803 24.0251 54.9093 23.2718 54.5834 20.4314H66.0433V17.5011C66.0433 11.5018 62.6613 9.24181 57.9314 9.24181L57.9315 9.24195ZM58.069 12.8995C60.0449 12.8995 61.3252 14.1111 61.2549 16.9211H54.5934C54.7089 13.9636 56.0896 12.8995 58.069 12.8995ZM96.9715 9.21733C91.1098 9.21733 88.0239 12.5206 88.0239 18.4402C88.0239 26.5622 93.3433 27.8696 96.9813 27.8696C102.307 27.8696 105.85 25.0023 105.85 18.5139C105.85 11.7607 101.866 9.21733 96.9715 9.21733ZM96.8977 13.4748C99.4752 13.4748 100.497 15.4038 100.497 17.5996V19.4874C100.497 22.1474 99.0674 23.686 96.8879 23.686C94.8496 23.686 93.417 22.2468 93.417 19.4874V17.5996C93.417 14.6567 95.1217 13.4748 96.8977 13.4748ZM116.632 9.21733C110.77 9.21733 107.684 12.5206 107.684 18.4402C107.684 26.5622 113.003 27.8696 116.641 27.8696C121.967 27.8696 125.51 25.0023 125.51 18.5139C125.51 11.7607 121.526 9.21733 116.632 9.21733ZM116.558 13.4748C119.135 13.4748 120.157 15.4038 120.157 17.5996V19.4874C120.157 22.1474 118.728 23.686 116.548 23.686C114.51 23.686 113.077 22.2468 113.077 19.4874V17.5996C113.077 14.6567 114.782 13.4748 116.558 13.4748ZM127.556 27.5088V0.606893L132.983 0.134897V18.1662L138.368 9.57424H144.1L138.483 18.473L144.316 27.5088H138.568L132.983 18.7352V27.5088H127.556Z" fill="white"/>
</g>
<defs>
<clipPath id="clip0_8_670">
<rect width="144.033" height="28" fill="white" transform="translate(0.283325)"/>
</clipPath>
</defs>
</svg>
