<svg width="96" height="38" viewBox="0 0 96 38" fill="none" xmlns="http://www.w3.org/2000/svg">
<g clip-path="url(#clip0_8_652)">
<path d="M27.4356 28.4206C28.0964 27.6711 28.6764 26.8539 29.1659 25.9828L26.2445 24.5257C25.8245 25.2327 25.3091 25.8783 24.7127 26.4445C23.8986 27.2003 23.0316 27.6411 22.1501 27.754C20.4471 27.9717 19.2569 27.4453 17.5211 26.3316C15.6998 25.1613 13.6308 23.8354 10.6975 24.2097C8.91985 24.4374 7.28702 25.369 5.8518 26.9781C5.19107 27.7285 4.6114 28.5466 4.12244 29.4187L7.04296 30.8758C7.46233 30.1686 7.97646 29.5221 8.57106 28.9543C9.37701 28.2075 10.2394 27.7704 11.1346 27.6566C11.3801 27.6246 11.6274 27.6082 11.875 27.6074C13.2182 27.6074 14.2974 28.1256 15.7645 29.0645C17.4674 30.1573 19.5893 31.5233 22.5899 31.1381C24.4031 30.904 26.0332 29.9897 27.4347 28.4179L27.4356 28.4206ZM27.4356 19.721C28.0964 18.9714 28.6764 18.1543 29.1659 17.2831L26.2445 15.8261C25.8244 16.5332 25.309 17.1792 24.7127 17.7457C23.8986 18.5016 23.0316 18.9424 22.1501 19.0553C20.4471 19.272 19.2569 18.7466 17.5211 17.6328C15.6998 16.4626 13.6308 15.1367 10.6975 15.511C8.91985 15.7386 7.28702 16.6702 5.8518 18.2794C5.19097 19.0294 4.61129 19.8472 4.12244 20.7191L7.04296 22.1762C7.46259 21.4694 7.9767 20.8233 8.57106 20.2556C9.37974 19.5106 10.2385 19.0717 11.1346 18.9597C11.3801 18.9277 11.6274 18.9113 11.875 18.9105C13.2182 18.9105 14.2974 19.4287 15.7645 20.3676C17.4674 21.4604 19.5893 22.8264 22.5899 22.4412C24.4031 22.2071 26.0332 21.2928 27.4347 19.721H27.4356ZM27.4356 11.0214C28.0964 10.2718 28.6764 9.45465 29.1659 8.58349L26.2445 7.12641C25.8244 7.83358 25.309 8.47955 24.7127 9.04611C23.8986 9.80196 23.0316 10.2427 22.1501 10.3557C20.4471 10.5724 19.2569 10.0469 17.5211 8.93318C15.6998 7.76297 13.6326 6.43704 10.6993 6.81132C8.9153 7.04536 7.28429 7.97334 5.85271 9.58249C5.19193 10.3305 4.61196 11.1461 4.12244 12.0158L7.04296 13.4729C7.46265 12.7665 7.97676 12.1206 8.57106 11.5532C9.37974 10.8083 10.2394 10.3766 11.1346 10.2573C11.3801 10.2254 11.6274 10.2089 11.875 10.2081C13.2182 10.2081 14.2974 10.7263 15.7645 11.6652C17.4674 12.758 19.5893 14.1195 22.5899 13.7388C24.4031 13.5075 26.0332 12.5932 27.4356 11.0214ZM37.6351 7.15282V30.9359H34.2656V7.15282H37.6351ZM41.1959 13.9983V30.9368H44.5726V13.9983H41.1959ZM72.9528 17.9088C74.3425 16.9744 75.9789 16.7058 77.6181 16.9671V14.0193C77.2393 13.9712 76.858 13.9466 76.4762 13.9455C74.1603 13.9455 72.3244 14.6531 71.441 15.8871L71.0267 16.4635V13.9792H67.6472V30.9368H71.0067V25.0439C71.0067 23.9647 70.9948 23.0577 71.0067 21.9785C71.0285 20.1982 71.6277 18.8012 72.9537 17.9088H72.9528ZM95.1886 30.9313V13.9774H92.0486V15.8406L91.6707 15.5155C90.1991 14.2497 88.4169 13.6031 86.3733 13.6031C84.8516 13.6031 83.4191 13.9737 82.2261 14.6832C79.4859 16.3023 77.8549 19.2074 77.8549 22.453C77.8549 25.6986 79.475 28.58 82.1888 30.1855C83.3663 30.8849 84.9572 31.302 86.4434 31.302C88.4369 31.302 90.2938 30.6254 91.6634 29.3969L92.045 29.0554V30.9313H95.1886ZM90.709 26.6958C89.7222 27.7521 88.357 28.3742 86.9124 28.4261H86.7121C83.3426 28.4261 80.7017 25.8034 80.7017 22.4548C80.688 20.9147 81.2573 19.4264 82.2953 18.2885C83.3727 17.1247 84.8753 16.4836 86.5254 16.4836H86.7594C87.4942 16.5063 88.2174 16.6735 88.8876 16.9757C89.5577 17.2779 90.1618 17.7091 90.6653 18.2448C91.6916 19.3228 92.2624 20.7552 92.259 22.2435V22.79C92.2608 24.2389 91.7067 25.6333 90.7108 26.6858L90.709 26.6958ZM56.9495 31.3065C58.4713 31.3065 59.9038 30.9359 61.0967 30.2265C63.8369 28.6073 65.468 25.7023 65.468 22.4566C65.468 19.211 63.8451 16.3306 61.1304 14.7251C59.9529 14.0257 58.362 13.6086 56.8749 13.6086C54.8823 13.6086 53.0282 14.2852 51.6549 15.5146L51.2733 15.8552V7.15282H48.1343V30.9359H51.2742V29.0736L51.6531 29.3987C53.1238 30.6682 54.906 31.3065 56.9495 31.3065ZM51.0666 22.6707V22.1243C51.0647 20.6748 51.6188 19.2797 52.6147 18.2266C53.6027 17.1692 54.9697 16.547 56.4159 16.4963H56.6162C59.9857 16.4963 62.6267 19.119 62.6267 22.4676C62.6401 24.0078 62.0704 25.4962 61.0321 26.6339C59.9548 27.7977 58.4531 28.4388 56.8029 28.4388H56.5689C55.8331 28.415 55.1092 28.2463 54.4386 27.9424C53.7681 27.6384 53.1641 27.2052 52.6612 26.6676C51.6354 25.5899 51.0644 24.1585 51.0666 22.6707ZM44.5735 7.15282H41.1968V10.5223H44.5735V7.15282Z" fill="white"/>
</g>
<defs>
<clipPath id="clip0_8_652">
<rect width="94.9051" height="38" fill="white" transform="translate(0.283447)"/>
</clipPath>
</defs>
</svg>
