<svg width="165" height="36" viewBox="0 0 165 36" fill="none" xmlns="http://www.w3.org/2000/svg">
<path fill-rule="evenodd" clip-rule="evenodd" d="M18 36C27.9412 36 36 27.9411 36 18C36 8.05888 27.9412 0 18 0C8.05887 0 0 8.05888 0 18C0 27.9411 8.05887 36 18 36ZM20.7783 13.9073C22.3126 12.3729 22.3126 9.88521 20.7783 8.3508C19.2439 6.81641 16.7562 6.81641 15.2218 8.3508C13.6874 9.88521 13.6874 12.3729 15.2218 13.9073L18 16.6855L20.7783 13.9073ZM22.0927 20.7783C23.6271 22.3127 26.1148 22.3127 27.6493 20.7783C29.1836 19.2439 29.1836 16.7562 27.6493 15.2218C26.1148 13.6874 23.6271 13.6874 22.0927 15.2218L19.3145 18.0001L22.0927 20.7783ZM20.7783 27.6493C22.3126 26.1148 22.3126 23.6271 20.7783 22.0927L18 19.3145L15.2218 22.0927C13.6874 23.6271 13.6874 26.1148 15.2218 27.6493C16.7562 29.1837 19.2439 29.1837 20.7783 27.6493ZM8.35077 20.7783C6.81642 19.2439 6.81642 16.7562 8.35077 15.2218C9.88521 13.6874 12.3729 13.6874 13.9073 15.2218L16.6855 18.0001L13.9073 20.7783C12.3729 22.3127 9.88521 22.3127 8.35077 20.7783Z" fill="#0D903A"/>
<path d="M57.748 9.99V13.422H51.544V16.15H56.12V19.428H51.544V25.5H47.232V9.99H57.748ZM61.742 12.014C60.9794 12.014 60.3634 11.8087 59.894 11.398C59.4394 10.9727 59.212 10.4447 59.212 9.814C59.212 9.16867 59.4394 8.63333 59.894 8.208C60.3634 7.78267 60.9794 7.57 61.742 7.57C62.49 7.57 63.0914 7.78267 63.546 8.208C64.0154 8.63333 64.25 9.16867 64.25 9.814C64.25 10.4447 64.0154 10.9727 63.546 11.398C63.0914 11.8087 62.49 12.014 61.742 12.014ZM63.876 13.158V25.5H59.564V13.158H63.876ZM70.6436 15.336C71.1276 14.632 71.7143 14.0747 72.4036 13.664C73.0929 13.2533 73.8336 13.048 74.6256 13.048V17.646H73.4156C72.4769 17.646 71.7803 17.8293 71.3256 18.196C70.8709 18.5627 70.6436 19.2007 70.6436 20.11V25.5H66.3316V13.158H70.6436V15.336ZM81.4295 25.654C80.3148 25.654 79.3175 25.4707 78.4375 25.104C77.5721 24.7227 76.8828 24.2093 76.3695 23.564C75.8708 22.904 75.5921 22.1633 75.5335 21.342H79.7135C79.7721 21.738 79.9555 22.046 80.2635 22.266C80.5715 22.486 80.9528 22.596 81.4075 22.596C81.7595 22.596 82.0381 22.5227 82.2435 22.376C82.4488 22.2293 82.5515 22.0387 82.5515 21.804C82.5515 21.496 82.3828 21.2687 82.0455 21.122C81.7081 20.9753 81.1508 20.814 80.3735 20.638C79.4935 20.462 78.7601 20.264 78.1735 20.044C77.5868 19.824 77.0735 19.4647 76.6335 18.966C76.2081 18.4673 75.9955 17.7927 75.9955 16.942C75.9955 16.2087 76.1935 15.5487 76.5895 14.962C76.9855 14.3607 77.5648 13.884 78.3275 13.532C79.1048 13.18 80.0361 13.004 81.1215 13.004C82.7348 13.004 84.0035 13.4 84.9275 14.192C85.8515 14.984 86.3868 16.0253 86.5335 17.316H82.6395C82.5661 16.92 82.3901 16.6193 82.1115 16.414C81.8475 16.194 81.4881 16.084 81.0335 16.084C80.6815 16.084 80.4101 16.15 80.2195 16.282C80.0435 16.414 79.9555 16.5973 79.9555 16.832C79.9555 17.1253 80.1241 17.3527 80.4615 17.514C80.7988 17.6607 81.3415 17.8147 82.0895 17.976C82.9841 18.1667 83.7248 18.3793 84.3115 18.614C84.9128 18.8487 85.4335 19.23 85.8735 19.758C86.3281 20.2713 86.5555 20.9753 86.5555 21.87C86.5555 22.5887 86.3428 23.234 85.9175 23.806C85.5068 24.378 84.9128 24.8327 84.1355 25.17C83.3728 25.4927 82.4708 25.654 81.4295 25.654ZM95.9574 21.826V25.5H94.0874C90.934 25.5 89.3574 23.938 89.3574 20.814V16.744H87.8394V13.158H89.3574V10.166H93.6914V13.158H95.9354V16.744H93.6914V20.88C93.6914 21.2173 93.7647 21.4593 93.9114 21.606C94.0727 21.7527 94.3367 21.826 94.7034 21.826H95.9574ZM105.371 25.654C103.919 25.654 102.584 25.3167 101.367 24.642C100.15 23.9527 99.1818 23.0067 98.4631 21.804C97.7591 20.5867 97.4071 19.2153 97.4071 17.69C97.4071 16.1647 97.7591 14.8007 98.4631 13.598C99.1818 12.3807 100.15 11.4347 101.367 10.76C102.584 10.0853 103.919 9.748 105.371 9.748C106.838 9.748 108.172 10.0853 109.375 10.76C110.592 11.4347 111.553 12.3807 112.257 13.598C112.961 14.8007 113.313 16.1647 113.313 17.69C113.313 19.2153 112.961 20.5867 112.257 21.804C111.553 23.0067 110.592 23.9527 109.375 24.642C108.158 25.3167 106.823 25.654 105.371 25.654ZM105.371 21.65C106.471 21.65 107.336 21.2907 107.967 20.572C108.612 19.8533 108.935 18.8927 108.935 17.69C108.935 16.458 108.612 15.49 107.967 14.786C107.336 14.0673 106.471 13.708 105.371 13.708C104.256 13.708 103.384 14.0673 102.753 14.786C102.122 15.49 101.807 16.458 101.807 17.69C101.807 18.9073 102.122 19.8753 102.753 20.594C103.384 21.298 104.256 21.65 105.371 21.65ZM121.918 16.744H119.982V25.5H115.648V16.744H114.306V13.158H115.648V13.048C115.648 11.464 116.11 10.254 117.034 9.418C117.972 8.56733 119.314 8.142 121.06 8.142C121.412 8.142 121.683 8.14933 121.874 8.164V11.838C121.756 11.8233 121.595 11.816 121.39 11.816C120.92 11.816 120.576 11.926 120.356 12.146C120.136 12.3513 120.011 12.6887 119.982 13.158H121.918V16.744ZM130.125 16.744H128.189V25.5H123.855V16.744H122.513V13.158H123.855V13.048C123.855 11.464 124.317 10.254 125.241 9.418C126.179 8.56733 127.521 8.142 129.267 8.142C129.619 8.142 129.89 8.14933 130.081 8.164V11.838C129.963 11.8233 129.802 11.816 129.597 11.816C129.127 11.816 128.783 11.926 128.563 12.146C128.343 12.3513 128.218 12.6887 128.189 13.158H130.125V16.744ZM133.844 12.014C133.081 12.014 132.465 11.8087 131.996 11.398C131.541 10.9727 131.314 10.4447 131.314 9.814C131.314 9.16867 131.541 8.63333 131.996 8.208C132.465 7.78267 133.081 7.57 133.844 7.57C134.592 7.57 135.193 7.78267 135.648 8.208C136.117 8.63333 136.352 9.16867 136.352 9.814C136.352 10.4447 136.117 10.9727 135.648 11.398C135.193 11.8087 134.592 12.014 133.844 12.014ZM135.978 13.158V25.5H131.666V13.158H135.978ZM137.729 19.318C137.729 18.042 137.993 16.9273 138.521 15.974C139.049 15.0207 139.783 14.2873 140.721 13.774C141.675 13.2607 142.76 13.004 143.977 13.004C145.547 13.004 146.867 13.4367 147.937 14.302C149.008 15.1527 149.697 16.348 150.005 17.888H145.429C145.165 17.0813 144.652 16.678 143.889 16.678C143.347 16.678 142.914 16.9053 142.591 17.36C142.283 17.8 142.129 18.4527 142.129 19.318C142.129 20.1833 142.283 20.8433 142.591 21.298C142.914 21.7527 143.347 21.98 143.889 21.98C144.667 21.98 145.18 21.5767 145.429 20.77H150.005C149.697 22.2953 149.008 23.4907 147.937 24.356C146.867 25.2213 145.547 25.654 143.977 25.654C142.76 25.654 141.675 25.3973 140.721 24.884C139.783 24.3707 139.049 23.6373 138.521 22.684C137.993 21.7307 137.729 20.6087 137.729 19.318ZM163.588 19.186C163.588 19.5233 163.566 19.8607 163.522 20.198H155.36C155.404 20.8727 155.588 21.3787 155.91 21.716C156.248 22.0387 156.673 22.2 157.186 22.2C157.905 22.2 158.418 21.8773 158.726 21.232H163.324C163.134 22.0827 162.76 22.8453 162.202 23.52C161.66 24.18 160.97 24.7007 160.134 25.082C159.298 25.4633 158.374 25.654 157.362 25.654C156.145 25.654 155.06 25.3973 154.106 24.884C153.168 24.3707 152.427 23.6373 151.884 22.684C151.356 21.7307 151.092 20.6087 151.092 19.318C151.092 18.0273 151.356 16.9127 151.884 15.974C152.412 15.0207 153.146 14.2873 154.084 13.774C155.038 13.2607 156.13 13.004 157.362 13.004C158.58 13.004 159.658 13.2533 160.596 13.752C161.535 14.2507 162.268 14.9693 162.796 15.908C163.324 16.832 163.588 17.9247 163.588 19.186ZM159.188 18.108C159.188 17.58 159.012 17.1693 158.66 16.876C158.308 16.568 157.868 16.414 157.34 16.414C156.812 16.414 156.38 16.5607 156.042 16.854C155.705 17.1327 155.485 17.5507 155.382 18.108H159.188Z" fill="#000929"/>
</svg>
