<svg width="141" height="30" viewBox="0 0 141 30" fill="none" xmlns="http://www.w3.org/2000/svg">
<g clip-path="url(#clip0_8_673)">
<path d="M49.9015 17.2791L49.0643 19.6512H48.9945C48.855 19.1163 48.5992 18.3023 48.1806 17.3256L43.6922 6.0465H39.2969V24.0232H42.2039V12.9302C42.2039 12.2325 42.2039 11.4418 42.1806 10.4651C42.1573 9.97673 42.1108 9.60464 42.0876 9.32557H42.1573C42.2969 10.0232 42.4597 10.5349 42.5759 10.8605L47.9713 23.9767H50.0178L55.3666 10.7442C55.4829 10.4419 55.5992 9.8372 55.7155 9.32557H55.7852C55.7155 10.6512 55.669 11.8372 55.6457 12.5581V23.9535H58.7387V5.99999H54.5062L49.9015 17.2791ZM61.669 11.0698H64.6922V23.9535H61.669V11.0698ZM63.2038 5.6279C62.6922 5.6279 62.2736 5.81394 61.9248 6.13952C61.5759 6.46511 61.3899 6.88371 61.3899 7.39534C61.3899 7.88371 61.5759 8.30231 61.9248 8.6279C62.2736 8.95348 62.6922 9.11627 63.2038 9.11627C63.7155 9.11627 64.1573 8.93022 64.4829 8.6279C64.8318 8.30231 65.0178 7.88371 65.0178 7.39534C65.0178 6.90697 64.8318 6.48836 64.4829 6.13952C64.1806 5.81394 63.7387 5.6279 63.2038 5.6279ZM75.4132 10.9535C74.855 10.8372 74.2736 10.7674 73.7155 10.7674C72.3434 10.7674 71.0876 11.0698 70.0411 11.6744C68.9945 12.2791 68.1573 13.1163 67.6225 14.1628C67.0643 15.2325 66.7852 16.4651 66.7852 17.8837C66.7852 19.1163 67.0643 20.2093 67.5992 21.2093C68.1341 22.186 68.8783 22.9767 69.8783 23.5116C70.8318 24.0465 71.948 24.3256 73.2038 24.3256C74.6457 24.3256 75.8783 24.0232 76.855 23.4651L76.8783 23.4419V20.6512L76.762 20.7442C76.3201 21.0698 75.8085 21.3488 75.2969 21.5116C74.762 21.6977 74.2736 21.7907 73.855 21.7907C72.6457 21.7907 71.6922 21.4419 71.0178 20.6744C70.3201 19.9302 69.9713 18.907 69.9713 17.6279C69.9713 16.3023 70.3201 15.2558 71.0411 14.4884C71.762 13.7209 72.7155 13.3256 73.8783 13.3256C74.855 13.3256 75.855 13.6512 76.762 14.3023L76.8783 14.3953V11.4419L76.855 11.4186C76.4597 11.2558 76.0178 11.0698 75.4132 10.9535ZM85.3899 10.8605C84.6457 10.8605 83.948 11.093 83.3434 11.5814C82.8318 12 82.4829 12.6046 82.1806 13.3256H82.1573V11.0698H79.1341V23.9535H82.1573V17.3721C82.1573 16.2558 82.3899 15.3256 82.9015 14.6512C83.4132 13.9535 84.0643 13.6046 84.855 13.6046C85.1341 13.6046 85.4132 13.6744 85.762 13.7209C86.0876 13.8139 86.3201 13.907 86.4829 14.0232L86.5992 14.1163V11.093L86.5294 11.0698C86.3201 10.9302 85.9015 10.8605 85.3899 10.8605ZM93.6225 10.7907C91.5062 10.7907 89.8085 11.4186 88.6225 12.6512C87.4132 13.8837 86.8318 15.5814 86.8318 17.7209C86.8318 19.7209 87.4364 21.3488 88.5992 22.5349C89.762 23.6977 91.3434 24.3023 93.3201 24.3023C95.3899 24.3023 97.0411 23.6744 98.2271 22.4186C99.4364 21.1628 100.018 19.4884 100.018 17.4186C100.018 15.3721 99.4597 13.7442 98.3201 12.5581C97.2271 11.3721 95.6225 10.7907 93.6225 10.7907ZM96.0411 20.6977C95.4829 21.4186 94.5992 21.7674 93.5062 21.7674C92.4132 21.7674 91.5294 21.4186 90.9015 20.6512C90.2736 19.9302 89.9713 18.8837 89.9713 17.5581C89.9713 16.186 90.2969 15.1395 90.9015 14.3953C91.5294 13.6512 92.3899 13.2791 93.4829 13.2791C94.5527 13.2791 95.3899 13.6279 95.9945 14.3488C96.5992 15.0698 96.9248 16.1163 96.9248 17.4884C96.8783 18.8837 96.6225 19.9767 96.0411 20.6977ZM106.762 16.4186C105.809 16.0232 105.204 15.7209 104.925 15.4651C104.692 15.2325 104.576 14.907 104.576 14.4884C104.576 14.1395 104.715 13.7907 105.064 13.5581C105.413 13.3256 105.809 13.2093 106.39 13.2093C106.902 13.2093 107.436 13.3023 107.948 13.4418C108.46 13.5814 108.925 13.7907 109.297 14.0698L109.413 14.1628V11.3256L109.343 11.3023C108.995 11.1628 108.529 11.0232 107.971 10.907C107.413 10.8139 106.902 10.7674 106.483 10.7674C105.041 10.7674 103.855 11.1163 102.925 11.8837C101.995 12.6046 101.553 13.5814 101.553 14.7209C101.553 15.3256 101.646 15.8605 101.855 16.3023C102.064 16.7442 102.367 17.1628 102.785 17.5116C103.204 17.8372 103.809 18.2093 104.646 18.5581C105.343 18.8605 105.878 19.093 106.204 19.2791C106.529 19.4651 106.739 19.6744 106.902 19.8372C107.018 20.0232 107.088 20.2558 107.088 20.5581C107.088 21.4186 106.436 21.8372 105.111 21.8372C104.599 21.8372 104.064 21.7442 103.436 21.5349C102.809 21.3256 102.227 21.0232 101.739 20.6744L101.622 20.5814V23.5349L101.692 23.5581C102.134 23.7674 102.669 23.907 103.32 24.0698C103.971 24.186 104.553 24.2791 105.064 24.2791C106.622 24.2791 107.902 23.9302 108.809 23.1628C109.739 22.4186 110.227 21.4651 110.227 20.2325C110.227 19.3721 109.995 18.6046 109.483 18.0232C108.809 17.4651 107.971 16.8837 106.762 16.4186ZM118.204 10.7907C116.088 10.7907 114.39 11.4186 113.204 12.6512C112.018 13.8837 111.413 15.5814 111.413 17.7209C111.413 19.7209 112.018 21.3488 113.181 22.5349C114.343 23.6977 115.925 24.3023 117.902 24.3023C119.971 24.3023 121.622 23.6744 122.809 22.4186C124.018 21.1628 124.599 19.4884 124.599 17.4186C124.599 15.3721 124.041 13.7442 122.902 12.5581C121.808 11.3721 120.204 10.7907 118.204 10.7907ZM120.599 20.6977C120.041 21.4186 119.157 21.7674 118.064 21.7674C116.948 21.7674 116.088 21.4186 115.46 20.6512C114.832 19.9302 114.529 18.8837 114.529 17.5581C114.529 16.186 114.855 15.1395 115.46 14.3953C116.088 13.6512 116.948 13.2791 118.041 13.2791C119.088 13.2791 119.948 13.6279 120.553 14.3488C121.157 15.0698 121.483 16.1163 121.483 17.4884C121.483 18.8837 121.181 19.9767 120.599 20.6977ZM140.762 13.5581V11.0698H137.715V7.2558L137.622 7.27906L134.739 8.13952L134.669 8.16278V11.0698H130.111V9.44185C130.111 8.69766 130.297 8.11627 130.622 7.74418C130.948 7.37208 131.436 7.18604 132.041 7.18604C132.46 7.18604 132.902 7.27906 133.39 7.48836L133.506 7.55813V4.93022L133.436 4.90697C133.018 4.76743 132.46 4.67441 131.739 4.67441C130.832 4.67441 130.041 4.88371 129.32 5.23255C128.599 5.6279 128.064 6.16278 127.669 6.88371C127.274 7.58138 127.064 8.37208 127.064 9.27906V11.0698H124.948V13.5349H127.064V23.9535H130.111V13.5581H134.669V20.186C134.669 22.907 135.948 24.2791 138.506 24.2791C138.925 24.2791 139.367 24.2093 139.785 24.1395C140.227 24.0465 140.553 23.9302 140.739 23.8372L140.762 23.8139V21.3256L140.646 21.4186C140.46 21.5349 140.297 21.6279 140.018 21.6977C139.785 21.7674 139.576 21.7907 139.413 21.7907C138.809 21.7907 138.39 21.6512 138.088 21.3023C137.809 20.9767 137.669 20.4419 137.669 19.6512V13.5581H140.762Z" fill="white"/>
<path d="M0.320068 -3.05176e-05H14.5759V14.2558H0.320068V-3.05176e-05Z" fill="white"/>
<path d="M16.0642 -3.05176e-05H30.32V14.2558H16.0642V-3.05176e-05Z" fill="white"/>
<path d="M0.320068 15.7442H14.5759V30H0.320068V15.7442Z" fill="white"/>
<path d="M16.0642 15.7442H30.32V30H16.0642V15.7442Z" fill="white"/>
</g>
<defs>
<clipPath id="clip0_8_673">
<rect width="140.449" height="30" fill="white" transform="translate(0.316284)"/>
</clipPath>
</defs>
</svg>
