<svg width="185" height="24" viewBox="0 0 185 24" fill="none" xmlns="http://www.w3.org/2000/svg">
<path d="M157.472 9.52354V23.986H162.095V14.3443H179.001V23.986H183.623V9.52354H157.472ZM161.566 4.83481H179.397C181.906 4.37254 183.689 2.12724 184.218 0.0140076H156.746C157.274 2.12724 159.123 4.3065 161.566 4.83481ZM143.406 23.986C145.717 22.9954 146.972 21.2784 147.5 19.2972H126.698V0.080046H122.009V23.986H143.406ZM87.3392 4.76877H103.849C106.358 4.04235 108.405 2.12724 108.934 0.080046H82.7826V14.2123H104.179V19.1651H87.4053C84.7637 19.8916 82.5184 21.6746 81.3958 23.986H108.802V9.52354H87.4053L87.3392 4.76877ZM46.6595 4.83481H64.4899C66.9994 4.37254 68.8485 2.12724 69.3107 0.0140076H41.7727C42.301 2.12724 44.1501 4.3065 46.6595 4.83481ZM46.6595 14.2783H64.4899C66.9994 13.816 68.8485 11.5707 69.3107 9.4575H41.7727C42.301 11.5707 44.1501 13.75 46.6595 14.2783ZM46.6595 23.986H64.4899C66.9994 23.5237 68.8485 21.2784 69.3107 19.1651H41.7727C42.301 21.2784 44.1501 23.5237 46.6595 23.986Z" fill="white"/>
<path d="M0.234375 0.080046C0.762682 2.19328 2.61176 4.3065 5.05518 4.83481H12.5836L12.9798 4.96689V23.9199H17.6685V4.96689L18.0647 4.83481H25.5931C28.1026 4.17443 29.8856 2.19328 30.4139 0.080046V0.0140076L0.234375 0.080046Z" fill="white"/>
</svg>
